<svg xmlns="http://www.w3.org/2000/svg" width="500" height="193" version="1.0" viewBox="0 0 375 144.75"><defs><clipPath id="a"><path d="M271.297 33.766h20.719V77.32h-20.72Zm0 0"/></clipPath><clipPath id="b"><path d="M254.7 9.227h29.562v61.738h-29.563Zm0 0"/></clipPath></defs><g clip-path="url(#a)"><path fill="#fa4032" d="M286.754 33.906s12.883 8.188-1.227 22.809c-12.207 12.656-6.132 20.605-6.132 20.605s-7.899-2.082-8.079-10.507c-.082-3.801 1.313-9.598 7.149-14.934 5.648-5.164 9.21-10.695 8.289-17.973"/></g><g clip-path="url(#b)"><path fill="#fa4032" d="M276.52 9.227s18.304 11.632-1.743 32.41c-17.347 17.98-8.714 29.277-8.714 29.277s-11.223-2.957-11.481-14.93c-.113-5.402 1.867-13.636 10.16-21.218 8.028-7.34 13.086-15.2 11.778-25.54"/></g><path fill="#fa4032" d="M6.386 52.985h29.797c8.007 0 14.539 2.141 19.593 6.422 5.051 4.274 7.579 10.383 7.579 18.328 0 6.137-1.532 11.278-4.594 15.422-3.063 4.137-7.219 7.043-12.469 8.72l28.688 34.452H50.823L25.37 103.392v32.937H6.386ZM25.37 89.97h2.235c1.75 0 3.226-.031 4.437-.094 1.207-.07 2.586-.312 4.14-.719 1.551-.406 2.798-.976 3.735-1.718.945-.739 1.754-1.817 2.422-3.235.676-1.414 1.016-3.133 1.016-5.156 0-2.02-.34-3.734-1.016-5.14-.668-1.415-1.477-2.493-2.422-3.235-.937-.738-2.184-1.313-3.734-1.719-1.555-.406-2.934-.64-4.141-.703-1.21-.07-2.687-.11-4.437-.11H25.37ZM80.413 55.626c2.093-2.094 4.586-3.14 7.484-3.14 2.895 0 5.383 1.046 7.469 3.14 2.094 2.086 3.14 4.574 3.14 7.469 0 2.898-1.046 5.39-3.14 7.484-2.086 2.086-4.574 3.125-7.469 3.125-2.898 0-5.39-1.039-7.484-3.125-2.086-2.094-3.125-4.586-3.125-7.484 0-2.895 1.039-5.383 3.125-7.469ZM78.71 84.501v51.828h17.875V84.501ZM109.215 136.33V84.5h17.875v5.469h.203c4.645-4.656 9.594-6.985 14.844-6.985 2.562 0 5.101.34 7.625 1.016a27.853 27.853 0 0 1 7.281 3.14c2.32 1.407 4.207 3.407 5.656 6 1.446 2.594 2.172 5.61 2.172 9.048v34.14h-17.875v-29.297c0-2.687-.86-5.039-2.578-7.062-1.719-2.02-3.961-3.031-6.719-3.031-2.699 0-5.14 1.043-7.328 3.125-2.187 2.086-3.281 4.406-3.281 6.968v29.297ZM229.311 90.97c4.852 5.324 7.281 11.824 7.281 19.5 0 7.68-2.43 14.164-7.28 19.453-4.845 5.281-11.009 7.922-18.485 7.922-6.867 0-12.524-2.457-16.969-7.375h-.203v5.86h-17.672V49.453h17.875v40c4.445-4.312 10.102-6.469 16.969-6.469 7.476 0 13.64 2.665 18.484 7.985Zm-15.047 28.25c2.219-2.258 3.328-5.176 3.328-8.75 0-3.57-1.164-6.5-3.484-8.781-2.324-2.29-5.2-3.438-8.625-3.438-3.375 0-6.227 1.149-8.547 3.438-2.324 2.28-3.484 5.21-3.484 8.78 0 3.5 1.125 6.4 3.375 8.688 2.258 2.293 5.144 3.438 8.656 3.438 3.633 0 6.563-1.125 8.781-3.375ZM248.505 129.923c-4.844-5.29-7.266-11.773-7.266-19.453 0-7.676 2.422-14.176 7.266-19.5 4.851-5.32 11.015-7.985 18.484-7.985 6.875 0 12.531 2.157 16.969 6.47V84.5h17.89v51.828h-17.687v-5.86h-.203c-4.438 4.919-10.094 7.376-16.969 7.376-7.469 0-13.633-2.64-18.484-7.922Zm15.203-28.234c-2.324 2.28-3.485 5.21-3.485 8.78 0 3.575 1.11 6.493 3.329 8.75 2.226 2.25 5.16 3.376 8.796 3.376 3.5 0 6.375-1.145 8.625-3.438 2.258-2.289 3.391-5.187 3.391-8.687 0-3.57-1.164-6.5-3.484-8.781-2.325-2.29-5.168-3.438-8.532-3.438-3.437 0-6.32 1.149-8.64 3.438ZM313.964 136.33V84.5h17.875v5.469h.203c4.645-4.656 9.594-6.985 14.844-6.985 2.562 0 5.101.34 7.625 1.016a27.853 27.853 0 0 1 7.281 3.14c2.32 1.407 4.207 3.407 5.656 6 1.446 2.594 2.172 5.61 2.172 9.048v34.14h-17.875v-29.297c0-2.687-.86-5.039-2.578-7.062-1.719-2.02-3.96-3.031-6.719-3.031-2.699 0-5.14 1.043-7.328 3.125-2.187 2.086-3.281 4.406-3.281 6.968v29.297Zm0 0"/></svg>